# xmcd
#
# Track frame offsets: 
#        150
#        16032
#        35368
#        50108
#        65858
#        83898
#        100839
#        119194
#        135014
#        151246
#        169388
#        188471
#
# Disc length: 2725 seconds
#
# Revision: 0
# Processed by: cddbd v1.5.2PL0 Copyright (c) Steve Scherf et al.
# Submitted via: ExactAudioCopyFreeDBPlugin 1.0
#
DISCID=9a0aa30c
DTITLE=Muiža - Rožu pelni
DYEAR=2013
DGENRE=Latvian
TTITLE0=Gaisa pils
TTITLE1=Veltījums
TTITLE2=Bārā
TTITLE3=Parafrāze
TTITLE4=Tādas vietas nav
TTITLE5=Rožu pelni
TTITLE6=Sapņi
TTITLE7=Dzīve
TTITLE8=Manai pilsētai
TTITLE9=Kad Tev manis nebūs
TTITLE10=Zīda spārni
TTITLE11=Tev būšu tik...
EXTD=
EXTT0=
EXTT1=
EXTT2=
EXTT3=
EXTT4=
EXTT5=
EXTT6=
EXTT7=
EXTT8=
EXTT9=
EXTT10=
EXTT11=
PLAYORDER=
